<svg width="30" height="30" viewBox="0 0 30 30" fill="none" xmlns="http://www.w3.org/2000/svg">
<path d="M14.4004 4.27997C14.8668 3.50498 15.9903 3.50498 16.4567 4.27997L19.2574 8.93373C19.425 9.21214 19.6983 9.41071 20.0148 9.48402L25.3063 10.7095C26.1875 10.9136 26.5347 11.9822 25.9417 12.6652L22.3812 16.7669C22.1682 17.0123 22.0638 17.3336 22.0919 17.6573L22.5615 23.0685C22.6397 23.9696 21.7307 24.63 20.8979 24.2772L15.8967 22.1584C15.5975 22.0316 15.2597 22.0316 14.9605 22.1584L9.95926 24.2772C9.12641 24.63 8.21744 23.9696 8.29564 23.0685L8.76526 17.6573C8.79336 17.3336 8.68897 17.0123 8.47596 16.7669L4.91542 12.6652C4.32249 11.9822 4.66969 10.9136 5.55087 10.7095L10.8423 9.48402C11.1589 9.41071 11.4322 9.21214 11.5997 8.93373L14.4004 4.27997Z" fill="white"/>
</svg>
