<svg width="230" height="63" viewBox="0 0 230 63" fill="none" xmlns="http://www.w3.org/2000/svg">
<g filter="url(#filter0_i_2003_1669)">
<path d="M6.37981 4.45831C6.65626 1.92156 8.79861 0 11.3504 0H224.426C227.401 0 229.718 2.58336 229.396 5.54169L223.62 58.5417C223.344 61.0784 221.201 63 218.65 63H5.5745C2.59865 63 0.281532 60.4166 0.603927 57.4583L6.37981 4.45831Z" fill="#323D50"/>
</g>
<path d="M11.3504 0.5H224.426C227.104 0.5 229.189 2.82502 228.899 5.48752L223.123 58.4875C222.874 60.7706 220.946 62.5 218.65 62.5H5.5745C2.89624 62.5 0.810828 60.175 1.10098 57.5125L6.87687 4.51248C7.12567 2.2294 9.05379 0.5 11.3504 0.5Z" stroke="#000E2E"/>
<defs>
<filter id="filter0_i_2003_1669" x="0.574219" y="0" width="228.852" height="65.2" filterUnits="userSpaceOnUse" color-interpolation-filters="sRGB">
<feFlood flood-opacity="0" result="BackgroundImageFix"/>
<feBlend mode="normal" in="SourceGraphic" in2="BackgroundImageFix" result="shape"/>
<feColorMatrix in="SourceAlpha" type="matrix" values="0 0 0 0 0 0 0 0 0 0 0 0 0 0 0 0 0 0 127 0" result="hardAlpha"/>
<feOffset dy="5"/>
<feGaussianBlur stdDeviation="1.1"/>
<feComposite in2="hardAlpha" operator="arithmetic" k2="-1" k3="1"/>
<feColorMatrix type="matrix" values="0 0 0 0 0.396078 0 0 0 0 0.372549 0 0 0 0 0.52549 0 0 0 1 0"/>
<feBlend mode="normal" in2="shape" result="effect1_innerShadow_2003_1669"/>
</filter>
</defs>
</svg>
