<svg width="31" height="30" viewBox="0 0 31 30" fill="none" xmlns="http://www.w3.org/2000/svg">
<circle cx="4.09929" cy="4.09929" r="4.09929" transform="matrix(-1 0 0 1 19.8975 5.99994)" fill="white"/>
<path d="M8.62402 20.2805C8.62402 19.3988 9.1783 18.6123 10.0087 18.3157C13.7523 16.9787 17.8433 16.9787 21.5869 18.3157C22.4173 18.6123 22.9715 19.3988 22.9715 20.2805V21.6287C22.9715 22.8456 21.8937 23.7804 20.689 23.6083L20.2874 23.5509C17.3094 23.1255 14.2861 23.1255 11.3082 23.5509L10.9065 23.6083C9.70184 23.7804 8.62402 22.8456 8.62402 21.6287V20.2805Z" fill="white"/>
<path d="M21.9471 14.312C23.7259 14.312 25.168 12.87 25.168 11.0911C25.168 9.3123 23.7259 7.87027 21.9471 7.87027" stroke="white" stroke-width="2" stroke-linecap="round"/>
<path d="M25.4753 21.6601L25.7908 21.7052C26.7374 21.8404 27.5842 21.1059 27.5842 20.1498V19.0905C27.5842 18.3977 27.1487 17.7797 26.4963 17.5467C25.8455 17.3143 25.1814 17.1333 24.5098 17.0037" stroke="white" stroke-width="2" stroke-linecap="round"/>
<path d="M9.13689 14.312C7.35805 14.312 5.91602 12.87 5.91602 11.0911C5.91602 9.3123 7.35805 7.87027 9.13689 7.87027" stroke="white" stroke-width="2" stroke-linecap="round"/>
<path d="M5.60872 21.6601L5.29314 21.7052C4.3466 21.8404 3.49975 21.1059 3.49975 20.1498V19.0905C3.49975 18.3977 3.93526 17.7797 4.58767 17.5467C5.23847 17.3143 5.90262 17.1333 6.57422 17.0037" stroke="white" stroke-width="2" stroke-linecap="round"/>
</svg>
